<?xml version="1.0" standalone="no"?>
<!DOCTYPE svg PUBLIC "-//W3C//DTD SVG 20010904//EN"
 "http://www.w3.org/TR/2001/REC-SVG-20010904/DTD/svg10.dtd">
<svg version="1.0" xmlns="http://www.w3.org/2000/svg"
 width="512.000000pt" height="512.000000pt" viewBox="0 0 512.000000 512.000000"
 preserveAspectRatio="xMidYMid meet">
<metadata>
Created by potrace 1.14, written by Peter Selinger 2001-2017
</metadata>
<g transform="translate(0.000000,512.000000) scale(0.100000,-0.100000)"
fill="#000000" stroke="none">
<path d="M3248 4370 c-300 -37 -546 -250 -629 -546 -32 -112 -32 -296 0 -408
61 -216 214 -395 417 -487 92 -42 189 -61 314 -60 150 0 264 29 367 94 l40 25
304 -304 304 -304 97 97 98 98 -295 295 -296 296 45 90 c68 134 89 238 84 399
-7 189 -47 298 -161 443 -58 74 -164 160 -250 202 -121 59 -299 87 -439 70z
m235 -285 c84 -22 134 -51 203 -117 124 -119 173 -301 129 -473 -23 -88 -51
-140 -112 -206 -95 -102 -206 -149 -353 -149 -200 0 -356 95 -437 267 -35 72
-37 84 -41 192 -4 100 -1 125 18 180 67 200 235 319 450 320 47 1 112 -6 143
-14z"/>
<path d="M1094 4171 c-59 -27 -109 -75 -138 -133 l-26 -52 0 -1431 0 -1431 26
-52 c29 -58 79 -106 138 -133 39 -18 102 -19 1472 -19 l1430 0 52 26 c58 29
106 79 133 138 17 38 19 77 19 556 l0 515 -135 135 -135 135 0 -618 0 -617
-1365 0 -1365 0 0 1365 0 1365 485 0 485 0 0 135 0 135 -517 0 c-482 0 -521
-2 -559 -19z"/>
<path d="M2968 2468 c-19 -24 -150 -195 -292 -380 -141 -186 -259 -338 -261
-338 -2 0 -97 126 -211 280 -114 155 -210 279 -215 278 -4 -2 -125 -154 -268
-338 l-259 -335 1101 -3 c605 -1 1102 0 1104 2 5 4 -650 875 -658 876 -4 0
-22 -19 -41 -42z"/>
</g>
</svg>
