<?xml version="1.0" standalone="no"?>
<!DOCTYPE svg PUBLIC "-//W3C//DTD SVG 20010904//EN"
 "http://www.w3.org/TR/2001/REC-SVG-20010904/DTD/svg10.dtd">
<svg version="1.0" xmlns="http://www.w3.org/2000/svg"
 width="700.000000pt" height="700.000000pt" viewBox="0 0 700.000000 700.000000"
 preserveAspectRatio="xMidYMid meet">
<metadata>
Created by potrace 1.14, written by Peter Selinger 2001-2017
</metadata>
<g transform="translate(0.000000,700.000000) scale(0.100000,-0.100000)"
fill="#000000" stroke="none">
<path d="M4655 6414 c-314 -30 -555 -142 -765 -354 -136 -136 -231 -292 -288
-470 -81 -256 -74 -568 18 -823 86 -233 273 -458 503 -601 175 -109 342 -155
592 -163 260 -8 417 28 610 138 l88 51 484 -484 483 -483 157 158 158 157
-473 473 -473 473 46 79 c54 95 98 206 133 335 24 87 26 112 26 305 1 232 -11
303 -75 463 -146 369 -500 660 -883 726 -86 16 -275 26 -341 20z m229 -444
c37 -6 103 -22 145 -36 222 -74 410 -277 472 -511 28 -106 31 -296 5 -408 -87
-383 -441 -623 -848 -575 -193 22 -326 86 -458 219 -136 137 -203 291 -216
496 -23 344 164 650 465 768 134 52 285 68 435 47z"/>
<path d="M1173 6101 c-104 -38 -208 -133 -260 -239 l-28 -57 0 -2305 0 -2305
29 -60 c39 -79 143 -183 218 -219 32 -14 90 -31 130 -36 98 -13 4378 -13 4476
0 40 5 98 22 130 36 75 36 179 140 218 219 l29 60 3 830 2 830 -215 215 -215
215 0 -988 0 -987 -2190 0 -2190 0 0 2190 0 2190 780 0 780 0 0 215 0 215
-822 0 c-777 -1 -826 -2 -875 -19z"/>
<path d="M3735 2824 c-258 -337 -472 -614 -476 -614 -3 0 -156 204 -340 454
-255 347 -337 451 -346 442 -7 -6 -198 -252 -426 -546 l-415 -535 890 -3 c489
-1 1286 -1 1771 0 l882 3 -526 698 c-289 383 -530 702 -535 707 -5 5 -190
-229 -479 -606z"/>
</g>
</svg>
